# xmcd CD database file
#
# Track frame offsets:
#	150
#	18181
#	35599
#	53567
#
# Disc length: 939 seconds
#
# Revision: 1
# Processed by: cddbd v1.5.2PL0 Copyright (c) Steve Scherf et al.
# Submitted via: CDex 1.50Beta7
#
DISCID=2503a904
DTITLE=Frank Zander - Hier Kommt Knut
DYEAR=2007
DGENRE=Humour
TTITLE0=Hier Kommt Knut (Radioversion)
TTITLE1=Hier Kommt Knut (Maxiversion)
TTITLE2=Hier Kommt Knut (Tanzbärversion)
TTITLE3=Berlin (Radioversion)
EXTD=YEAR: 2007
EXTT0=
EXTT1=
EXTT2=
EXTT3=
PLAYORDER=
